<svg width="384" height="384" viewBox="0 0 384 384" fill="none" xmlns="http://www.w3.org/2000/svg">
<g clip-path="url(#clip0_78_466)">
<path d="M28.8904 124.739C24.6057 119.94 20.3341 103.071 19.4771 83.7045C19.4771 83.7045 19.1344 58.1379 21.5338 46.8265C24.6187 33.1156 30.1063 16.7126 38.8437 12.9555C47.5811 9.19837 67.1224 18.0637 67.1224 18.0637C81.176 25.0906 95.401 35.2023 102.942 42.0578L119.87 58.8968C119.87 58.8968 99.8242 68.0258 87.4844 73.6815C87.4844 73.6815 70.3217 90.6632 58.496 94.605C50.7837 104.888 28.8904 124.739 28.8904 124.739Z" fill="#479A19"/>
<path d="M39.4838 110.793C39.4838 110.793 34.388 85.2684 34.2162 75.9921C34.0444 66.7159 33.5307 52.8551 34.7304 45.6569C36.4442 36.5734 36.624 24.6092 44.6707 20.6345C53.3458 16.3495 67.8078 25.6047 72.6066 28.5183C72.6066 28.5183 85.9227 39.9289 91.6304 46.5415C96.5298 52.2176 104.549 64.9561 104.549 64.9561C104.549 64.9561 89.4951 73.9142 82.1275 78.6477C74.1308 83.7854 65.5943 89.2129 58.4959 94.605C51.3975 99.9971 39.4838 110.793 39.4838 110.793Z" fill="url(#paint0_linear_78_466)"/>
<path d="M38.3296 45.3141C38.3296 45.3141 43.1284 34.0026 47.5844 33.1457C51.5263 31.6032 60.267 33.4885 60.267 33.4885L72.9495 38.9728L69.2524 35.3737C66.6816 32.6315 60.2319 26.4389 53.0981 22.8633C50.5753 21.5988 47.229 21.6709 44.8423 23.3767C42.3684 25.1448 40.9004 31.6032 40.9004 31.6032L38.3296 45.3141Z" fill="url(#paint1_linear_78_466)"/>
<path d="M103.755 65.1679L89.234 43.9304C89.234 43.9304 77.866 31.5001 70.6867 27.3493C66.4785 24.9163 57.7882 21.6461 56.8392 22.7769C55.6395 24.2064 70.3787 33.6523 70.3787 33.6523C75.6477 37.1528 82.6542 40.923 87.8601 45.7235C94.0143 51.3986 103.755 65.1679 103.755 65.1679Z" fill="white" fill-opacity="0.686937"/>
<path d="M61.5359 33.3293C65.2335 35.6964 68.86 36.5513 69.6359 35.2388C70.4119 33.9263 68.0434 30.9434 64.3459 28.5763C60.6483 26.2092 57.0218 25.3543 56.2459 26.6668C55.4699 27.9793 57.8384 30.9622 61.5359 33.3293Z" fill="white" fill-opacity="0.948198"/>
<path d="M352.161 125.148C355.645 120.346 360.832 105.668 361.529 86.2875C361.872 79.7748 361.979 61.5738 359 46.8265C356.148 25.544 350.658 17.3622 343.553 13.6024C336.448 9.84265 323.187 12.4563 317.473 15.9722C311.759 19.4882 291.05 30.0475 284.918 36.9079C275.664 44.1061 261.954 59.53 261.954 59.53C261.954 59.53 289.617 71.4545 299.651 77.1143C299.651 77.1143 315.557 90.6804 325.173 94.6251C331.444 104.916 352.161 125.148 352.161 125.148Z" fill="#479A19"/>
<path d="M341.342 110.793C341.342 110.793 346.437 85.2684 346.609 75.9921C346.781 66.7159 347.295 52.8551 346.095 45.6569C344.381 36.5734 344.253 24.5027 336.155 20.6345C327.613 16.5546 313.836 26.1522 309.037 29.0658C300.766 34.0872 294.903 39.9289 289.195 46.5415C284.296 52.2176 276.276 64.9561 276.276 64.9561C276.276 64.9561 291.33 73.9142 298.698 78.6477C306.695 83.7854 314.761 88.8556 322.33 94.605C328.958 99.6398 341.342 110.793 341.342 110.793Z" fill="url(#paint2_linear_78_466)"/>
<path d="M278.454 62.3899C278.454 62.3899 299.864 42.0578 305.52 39.8297C305.52 39.8297 319.789 31.7704 327.629 29.718C329.625 29.1953 331.742 29.0292 333.799 29.2038C335.621 29.3586 337.864 31.9126 339.111 30.5749C341.232 28.3004 338.945 23.7663 336.155 21.7263C333.082 19.4798 327.64 21.3688 324.737 21.6744C321.058 22.0617 307.192 30.2321 299.651 36.7448C294.167 39.8297 278.454 62.3899 278.454 62.3899Z" fill="url(#paint3_linear_78_466)"/>
<path d="M278.454 62.3899C278.454 62.3899 298.687 45.4154 309.197 37.4303C314.305 33.5503 327.629 29.718 324.886 26.2903C320.366 20.6395 310.149 29.6944 304.052 33.2094C297.954 36.7244 293.48 42.7237 289.195 47.6344C284.909 52.5451 278.454 62.3899 278.454 62.3899Z" fill="url(#paint4_linear_78_466)"/>
<path d="M192 370.161C297.814 370.161 383.593 297.821 383.593 208.585C383.593 119.349 297.814 47.0091 192 47.0091C86.1864 47.0091 0.407471 119.349 0.407471 208.585C0.407471 297.821 86.1864 370.161 192 370.161Z" fill="#479A19"/>
<path d="M173.465 47.7669C111.33 54.0906 81.4885 71.6157 58.496 92.6941C44.5655 105.465 37.0532 121.107 30.1926 133.137C20.0466 148.739 9.5513 180.448 11.7449 212.439C11.848 226.016 18.7523 250.432 31.8378 271.697C44.9234 292.962 62.0096 311.405 77.2928 319.451C90.4841 328.394 107.562 333.252 122.92 337.595C138.279 341.938 154.264 344.286 169.959 345.247C211.157 347.771 269.021 342.301 292.81 327.907C313.456 316.469 331.218 301.327 345.819 282.589C360.421 263.85 366.82 247.005 370.4 228.327C371.441 216.417 374.709 199.737 368.515 173.891C362.477 148.702 340.174 110.315 324.859 98.7576C324.859 98.7576 300.169 69.0119 268.609 60.488C231.662 50.5091 206.816 45.5226 173.465 47.7669Z" fill="url(#paint5_linear_78_466)"/>
<path d="M193.14 78.6771C137.869 80.3778 106.551 98.6597 89.5446 110.989C65.7355 129.697 34.8399 164.135 40.367 212.178C40.4049 243.918 93.8102 340.943 191.578 338.451C227.948 337.524 264.984 322.022 294.321 301.614C321.956 280.361 345.118 235.486 344.26 210.004C342.92 170.254 328.698 136.778 299.575 114.801C299.575 114.801 255.638 79.1023 193.14 78.6771Z" fill="white" fill-opacity="0.981982"/>
<mask id="mask0_78_466" style="mask-type:luminance" maskUnits="userSpaceOnUse" x="-23" y="5" width="393" height="374">
<path d="M369.769 5.27907H-22.6729V378.667H369.769V5.27907Z" fill="white"/>
</mask>
<g mask="url(#mask0_78_466)">
<path d="M213.266 145.746L204.595 136.599C210.926 129.775 218.326 124.44 226.79 120.592C235.255 116.745 244.376 114.821 254.15 114.821C263.922 114.821 273.042 116.745 281.507 120.592C289.972 124.44 297.372 129.775 303.702 136.599L295.032 145.746C289.732 140.156 283.589 135.782 276.603 132.625C269.617 129.467 262.133 127.888 254.15 127.888C246.164 127.888 238.681 129.467 231.694 132.625C224.708 135.782 218.565 140.156 213.266 145.746Z" fill="url(#paint6_linear_78_466)"/>
</g>
<path d="M232.271 164.258L224.001 154.893C227.873 150.61 232.418 147.216 237.636 144.712C242.853 142.207 248.48 140.955 254.518 140.955C260.554 140.955 266.183 142.225 271.399 144.766C276.616 147.307 281.161 150.755 285.033 155.111L276.763 164.258C273.876 161.063 270.529 158.559 266.724 156.744C262.917 154.929 258.849 154.022 254.518 154.022C250.185 154.022 246.117 154.929 242.31 156.744C238.505 158.559 235.158 161.063 232.271 164.258Z" fill="url(#paint7_linear_78_466)"/>
<path d="M254.519 190.991C250.842 190.991 247.734 189.733 245.199 187.217C242.661 184.701 241.391 181.622 241.391 177.978C241.391 174.334 242.661 171.254 245.199 168.738C247.734 166.222 250.842 164.964 254.519 164.964C258.192 164.964 261.3 166.222 263.838 168.738C266.373 171.254 267.644 174.334 267.644 177.978C267.644 181.622 266.373 184.701 263.838 187.217C261.3 189.733 258.192 190.991 254.519 190.991Z" fill="url(#paint8_linear_78_466)"/>
<path d="M256.459 173.713C258.889 174.574 261.197 174.177 261.615 172.827C262.032 171.477 260.401 169.685 257.971 168.825C255.541 167.964 253.233 168.361 252.815 169.711C252.398 171.061 254.029 172.853 256.459 173.713Z" fill="white" fill-opacity="0.788288"/>
<path d="M114.616 186.255C116.973 188.074 119.31 186.22 122.833 185.942C126.356 185.664 130.517 188.911 132.041 186.582L160.853 140.957L115.264 170.716C112.857 172.361 112.084 175.802 112.146 178.847C112.208 181.892 112.259 184.435 114.616 186.255Z" fill="url(#paint9_linear_78_466)"/>
<path d="M123.369 190.452C127.045 190.452 130.153 189.194 132.689 186.678C135.227 184.162 136.497 181.082 136.497 177.439C136.497 173.795 135.227 170.715 132.689 168.199C130.153 165.683 127.045 164.425 123.369 164.425C119.696 164.425 116.588 165.683 114.05 168.199C111.515 170.715 110.244 173.795 110.244 177.439C110.244 181.082 111.515 184.162 114.05 186.678C116.588 189.194 119.696 190.452 123.369 190.452Z" fill="url(#paint10_linear_78_466)"/>
<path d="M121.429 173.174C118.999 174.034 116.69 173.638 116.273 172.288C115.855 170.938 117.487 169.146 119.917 168.285C122.347 167.425 124.655 167.822 125.072 169.172C125.49 170.522 123.859 172.314 121.429 173.174Z" fill="white" fill-opacity="0.790541"/>
<mask id="mask1_78_466" style="mask-type:luminance" maskUnits="userSpaceOnUse" x="-3" y="12" width="438" height="379">
<path d="M434.382 12.2126H-2.5481V390.569H434.382V12.2126Z" fill="white"/>
</mask>
<g mask="url(#mask1_78_466)">
<path d="M81.3956 185.477C79.7983 181.638 79.4985 177.559 79.4985 173.149C79.4985 166.612 80.7476 160.489 83.2454 154.78C85.7433 149.07 89.1534 144.07 93.4752 139.778C97.797 135.485 102.852 132.099 108.641 129.619C114.43 127.138 120.736 125.156 127.077 124.806C132.494 124.507 138.127 125.191 143.182 127.16C149.273 129.533 155.497 134.348 159.393 138.197L150.749 143.718C146.258 139.612 142.225 138.167 137.434 136.65C134.117 135.601 129.933 135.348 127.078 135.348C126.419 135.348 125.266 135.376 124.663 135.37C124.059 135.364 124.624 141.678 124.047 141.689C123.47 141.7 122.479 135.37 121.9 135.421C121.321 135.473 120.535 135.55 119.925 135.665C116.27 136.354 109.45 139.248 109.022 139.45C108.473 139.709 111.423 145.352 110.886 145.64C110.349 145.928 106.646 140.811 106.121 141.127C105.597 141.444 105.122 141.711 104.609 142.056C102.373 143.563 100.405 145.423 97.4169 148.925C96.9067 149.522 100.451 154.563 100.004 154.872C99.5566 155.18 94.9749 151.274 94.5816 151.809C94.1883 152.343 94.371 151.896 93.7782 152.93C92.4689 155.213 90.6039 159.794 89.7403 163.623C89.3084 165.537 95.8108 166.671 95.5056 167.319C95.453 167.831 89.175 167.538 89.0129 168.837C88.5665 172.413 87.8618 176.981 89.2593 180.671M163.893 182.717C164.726 179.488 165.142 176.141 165.142 172.676C165.142 169.841 164.805 167.085 164.131 164.407C163.457 161.73 160.123 155.195 158.774 152.675L164.484 143.697C166.863 147.399 171.07 155.272 172.457 159.446C173.845 163.62 174.579 167.951 174.658 172.44C174.738 176.929 174.214 181.206 172.837 185.316" fill="#71C139"/>
</g>
<path d="M148.497 228.527L45.9998 255.397C45.9998 255.397 49.0157 263.999 51.6459 267.718C54.102 271.191 60.8696 276.711 60.8696 276.711L148.807 252.971L150.18 242.702L148.497 228.527Z" fill="url(#paint11_linear_78_466)"/>
<path d="M230.454 227.718L341.233 255.397C341.233 255.397 337.068 263.561 334.283 267.234C331.659 270.695 325.19 276.711 325.19 276.711L230.314 252.971L228.833 242.702L230.454 227.718Z" fill="url(#paint12_linear_78_466)"/>
<path d="M192.364 206.681C175.767 206.681 166.409 210.943 162.156 213.04C158.91 214.642 149.504 222.245 147.013 229.235C146.177 230.927 145.353 234.99 145.287 238.77C145.22 242.55 145.912 246.047 146.172 246.902C148.068 253.929 153.511 259.784 160.24 264.766C162.322 266.216 172.785 269.82 177.433 269.929C178.694 269.959 186.782 270.084 190.783 270.212C194.783 270.34 199.488 270.227 201.486 269.965C207.745 269.42 215.631 267.282 220.241 265.2C228.16 262.077 234.903 249.806 235.398 246.37C236 242.2 236.08 239.902 235.658 236.591C235.177 232.82 234.223 229.721 233.405 228.01C228.386 217.972 219.966 214.394 214.947 211.457C208.068 208.52 201.57 206.829 192.364 206.681Z" fill="url(#paint13_radial_78_466)"/>
<path d="M168.921 222.963C173.35 223.713 178.971 222.677 183.998 222.591C186.566 222.547 189.136 222.454 191.705 222.516C194.245 222.579 196.779 222.811 199.316 222.963C203.232 223.197 207.159 224.059 211.064 223.68C212.11 223.579 213.389 223.648 214.113 222.888C214.489 222.494 214.594 221.814 214.448 221.289C214.243 220.555 212.886 219.616 212.886 219.616C210.73 217.794 202.388 213.296 191.159 212.255C180.675 212.292 175.16 215.12 168.605 219.17C167.81 219.661 167.103 220.795 167.341 221.698C167.513 222.351 168.256 222.85 168.921 222.963Z" fill="url(#paint14_radial_78_466)"/>
<path d="M190.232 220.482C194.581 220.482 198.107 218.992 198.107 217.154C198.107 215.316 194.581 213.826 190.232 213.826C185.882 213.826 182.356 215.316 182.356 217.154C182.356 218.992 185.882 220.482 190.232 220.482Z" fill="white"/>
</g>
<defs>
<linearGradient id="paint0_linear_78_466" x1="75.2344" y1="56.4461" x2="44.8496" y2="92.7844" gradientUnits="userSpaceOnUse">
<stop stop-color="#A4DE60"/>
<stop offset="1" stop-color="#A4DE60" stop-opacity="0"/>
</linearGradient>
<linearGradient id="paint1_linear_78_466" x1="47.615" y1="25.4116" x2="66.5726" y2="40.1965" gradientUnits="userSpaceOnUse">
<stop stop-color="white"/>
<stop offset="1" stop-color="white" stop-opacity="0"/>
</linearGradient>
<linearGradient id="paint2_linear_78_466" x1="306.406" y1="53.8215" x2="336.858" y2="84.1185" gradientUnits="userSpaceOnUse">
<stop stop-color="#A8E063"/>
<stop offset="1" stop-color="#A8E063" stop-opacity="0"/>
</linearGradient>
<linearGradient id="paint3_linear_78_466" x1="324.887" y1="26.2903" x2="289.195" y2="47.6344" gradientUnits="userSpaceOnUse">
<stop stop-color="white" stop-opacity="0.701087"/>
<stop offset="1" stop-color="white" stop-opacity="0.421196"/>
</linearGradient>
<linearGradient id="paint4_linear_78_466" x1="319.563" y1="31.907" x2="289.195" y2="47.6344" gradientUnits="userSpaceOnUse">
<stop stop-color="white"/>
<stop offset="1" stop-color="white" stop-opacity="0.611413"/>
</linearGradient>
<linearGradient id="paint5_linear_78_466" x1="237.662" y1="134.087" x2="191.754" y2="334.079" gradientUnits="userSpaceOnUse">
<stop stop-color="#A8E063"/>
<stop offset="1" stop-color="#47A919"/>
</linearGradient>
<linearGradient id="paint6_linear_78_466" x1="254.15" y1="114.821" x2="254.15" y2="140.955" gradientUnits="userSpaceOnUse">
<stop stop-color="#A8E063"/>
<stop offset="1" stop-color="#479A19"/>
</linearGradient>
<linearGradient id="paint7_linear_78_466" x1="254.518" y1="140.955" x2="254.518" y2="154.022" gradientUnits="userSpaceOnUse">
<stop stop-color="#A8E063"/>
<stop offset="1" stop-color="#479A19"/>
</linearGradient>
<linearGradient id="paint8_linear_78_466" x1="254.519" y1="164.964" x2="254.519" y2="190.991" gradientUnits="userSpaceOnUse">
<stop stop-color="#D8EE91"/>
<stop offset="1" stop-color="#479A19"/>
</linearGradient>
<linearGradient id="paint9_linear_78_466" x1="136.497" y1="164.425" x2="147.6" y2="155.073" gradientUnits="userSpaceOnUse">
<stop stop-color="#A8E063" stop-opacity="0.524457"/>
<stop offset="1" stop-color="#A8E063"/>
</linearGradient>
<linearGradient id="paint10_linear_78_466" x1="123.369" y1="164.425" x2="123.369" y2="190.452" gradientUnits="userSpaceOnUse">
<stop stop-color="#D8EE91"/>
<stop offset="1" stop-color="#479A19"/>
</linearGradient>
<linearGradient id="paint11_linear_78_466" x1="61.5903" y1="263.631" x2="127.787" y2="244.204" gradientUnits="userSpaceOnUse">
<stop stop-color="#56B124"/>
<stop offset="1" stop-color="#A8E063"/>
</linearGradient>
<linearGradient id="paint12_linear_78_466" x1="249.08" y1="243.207" x2="333.222" y2="270.506" gradientUnits="userSpaceOnUse">
<stop stop-color="#A8E063" stop-opacity="0.486413"/>
<stop offset="1" stop-color="#74C33C"/>
</linearGradient>
<radialGradient id="paint13_radial_78_466" cx="0" cy="0" r="1" gradientUnits="userSpaceOnUse" gradientTransform="translate(190.602 217.875) rotate(0.686812) scale(45.6934 29.276)">
<stop stop-color="#C8E584"/>
<stop offset="0.933013" stop-color="#479A19"/>
</radialGradient>
<radialGradient id="paint14_radial_78_466" cx="0" cy="0" r="1" gradientUnits="userSpaceOnUse" gradientTransform="translate(190.905 218.015) scale(23.9823 6.13105)">
<stop stop-color="white" stop-opacity="0.88587"/>
<stop offset="1" stop-color="white" stop-opacity="0.293478"/>
</radialGradient>
<clipPath id="clip0_78_466">
<rect width="384" height="384" fill="white"/>
</clipPath>
</defs>
</svg>
